<svg width="100%" height="100%" viewBox="0 0 30 30" fill="none" xmlns="http://www.w3.org/2000/svg">
<rect x="0.5" y="0.5" width="29" height="29" rx="4.5" fill="white" stroke="#222222"/>
<path d="M22.3806 10.408C22.7511 10.0307 23.3517 10.0307 23.7222 10.408C24.0926 10.7852 24.0926 11.3969 23.7222 11.7742L16.0455 19.592C15.6751 19.9693 15.0745 19.9693 14.704 19.592C14.3335 19.2148 14.3335 18.6031 14.704 18.2258L22.3806 10.408Z" fill="#222222"/>
<path d="M16.046 18.2258C16.4165 18.6031 16.4165 19.2148 16.046 19.592C15.6755 19.9693 15.0749 19.9693 14.7045 19.592L7.02784 11.7742C6.65739 11.3969 6.65739 10.7852 7.02784 10.408C7.39829 10.0307 7.99892 10.0307 8.36937 10.408L16.046 18.2258Z" fill="#222222"/>
</svg>
