<svg width="100%" height="100%" viewBox="0 0 22 22" fill="none" xmlns="http://www.w3.org/2000/svg">
<path d="M21.4923 2.85801C22.1413 2.20907 22.1413 1.15694 21.4923 0.508008C20.8434 -0.140927 19.7913 -0.140927 19.1423 0.508008L11.0007 8.64968L2.85898 0.508008C2.21005 -0.140926 1.15792 -0.140927 0.508984 0.508008C-0.13995 1.15694 -0.13995 2.20907 0.508984 2.85801L8.65065 10.9997L0.508985 19.1413C-0.13995 19.7903 -0.13995 20.8424 0.508985 21.4913C1.15792 22.1403 2.21005 22.1403 2.85898 21.4913L11.0007 13.3497L19.1423 21.4913C19.7913 22.1403 20.8434 22.1403 21.4923 21.4913C22.1413 20.8424 22.1413 19.7903 21.4923 19.1413L13.3507 10.9997L21.4923 2.85801Z" fill="#999999"/>
</svg>
